PathFileType	4	(X/Y/Z)	9_coords_data.trc
DataRate	CameraRate	NumFrames	NumMarkers	Units	OrigDataRate	OrigDataStartFrame	OrigNumFrames
30.0	30.0	8	21	m	30.0	10	47
Frame#	Time	THUMB_TIP	THUMB_IP	THUMB_MCP	THUMB_CMC	INDEX_TIP	INDEX_DIP	INDEX_PIP	INDEX_MCP	MIDDLE_TIP	MIDDLE_DIP	MIDDLE_PIP	MIDDLE_MCP	RING_TIP	RING_DIP	RING_PIP	RING_MCP	PINKY_TIP	PINKY_DIP	PINKY_PIP	PINKY_MCP	WRIST
X1	Y1	Z1	X2	Y2	Z2	X3	Y3	Z3	X4	Y4	Z4	X5	Y5	Z5	X6	Y6	Z6	X7	Y7	Z7	X8	Y8	Z8	X9	Y9	Z9	X10	Y10	Z10	X11	Y11	Z11	X12	Y12	Z12	X13	Y13	Z13	X14	Y14	Z14	X15	Y15	Z15	X16	Y16	Z16	X17	Y17	Z17	X18	Y18	Z18	X19	Y19	Z19	X20	Y20	Z20	X21	Y21	Z21
9	0.3	0.019766300201416016	-0.008821550369262696	1.02072998046875	0.01681570053100586	-0.004702439785003662	1.0448699951171876	0.007461510181427002	-0.005176609992980957	1.0708499755859375	-0.016165300369262694	0.0034572300910949696	1.0888399658203125	0.04644710159301758	-0.12080699920654298	1.0363199462890624	0.03712269973754883	-0.1015749969482422	1.044699951171875	0.026245100021362305	-0.08623970031738282	1.0541300048828126	0.007294700145721434	-0.05360359954833984	1.0676400146484375	0.013895299911499024	-0.013117199897766113	1.0254599609375	0.011007599830627442	-0.03393989944458008	1.0275999755859375	0.00644881010055542	-0.06158929824829101	1.0273199462890625	-0.018761999130249025	-0.057881900787353516	1.06293994140625	0.005057499885559082	-0.0071881599426269534	1.027300048828125	-0.00284495997428894	-0.02377090072631836	1.01997998046875	-0.01836400032043457	-0.048607101440429686	1.0189199829101563	-0.036738800048828124	-0.046595001220703126	1.0531300048828125	-0.06501679992675781	-0.0676333999633789	0.9933770141601562	-0.06209379959106445	-0.05477920150756836	1.0095999755859375	-0.05911349868774414	-0.044904899597167966	1.025699951171875	-0.049022300720214844	-0.02665239906311035	1.048260009765625	-0.0452151985168457	-0.0019167100191116331	1.1165999755859375
10	0.3333333333333333	0.01948320007324219	-0.00926747989654541	1.020530029296875	0.01639179992675781	-0.005164750099182129	1.044699951171875	0.007174449920654297	-0.0055130600929260256	1.0705400390625	-0.01636090087890625	0.0029768800735473634	1.0896300048828125	0.046111000061035155	-0.12096199798583984	1.0355400390625	0.03680009841918945	-0.10183100128173828	1.04406005859375	0.025943599700927734	-0.08658660125732422	1.0536800537109374	0.007016640186309813	-0.05399150085449219	1.0674100341796875	0.013607899665832519	-0.01346269989013672	1.025010009765625	0.010676899909973144	-0.03444509887695312	1.0275799560546874	0.006058010101318359	-0.061942298889160155	1.0271300048828125	-0.01898740005493164	-0.058363399505615234	1.0626500244140624	0.004730480194091797	-0.007543869972229004	1.0270799560546875	-0.00318572998046875	-0.024096599578857424	1.01977001953125	-0.0188169002532959	-0.04888819885253906	1.0188400268554687	-0.03720959854125976	-0.04690689849853515	1.0531300048828125	-0.06566159820556641	-0.06819830322265626	0.9934219970703125	-0.06260960006713867	-0.05530239868164062	1.0096599731445313	-0.0595797004699707	-0.04538880157470703	1.02568994140625	-0.04940420150756836	-0.02705970001220703	1.0483399658203125	-0.04507469940185547	-0.002478240013122558	1.115510009765625
11	0.36666666666666664	0.0193882999420166	-0.00997642993927002	1.0204500122070312	0.01631909942626953	-0.005932779788970948	1.0444300537109374	0.007202789783477783	-0.006369050025939941	1.070449951171875	-0.016369300842285155	0.002223599910736084	1.0886500244140624	0.04586989974975586	-0.12141799926757812	1.0349000244140625	0.036595001220703124	-0.10239099884033204	1.0436800537109374	0.025719600677490233	-0.087197998046875	1.0534200439453125	0.006713950157165528	-0.054762100219726564	1.0674599609375	0.013549500465393067	-0.014164899826049805	1.02497998046875	0.01051140022277832	-0.035295299530029293	1.02722998046875	0.0057947998046875	-0.06273659896850586	1.0270999755859376	-0.01885960006713867	-0.05899050140380859	1.0621300048828124	0.004601379871368408	-0.008281140327453614	1.027	-0.003316570043563842	-0.024819700241088868	1.019719970703125	-0.018910900115966797	-0.04955070114135742	1.0186699829101562	-0.03744020080566406	-0.04759140014648437	1.0531700439453124	-0.06575070190429687	-0.06892659759521484	0.9933800048828125	-0.06274879837036133	-0.056034698486328124	1.0095800170898437	-0.059736698150634766	-0.046107799530029296	1.0257099609375	-0.04961090087890625	-0.027773399353027344	1.048300048828125	-0.04528549957275391	-0.0031550500392913817	1.115530029296875
12	0.4	0.019488800048828126	-0.010542499542236327	1.0204500122070312	0.016395599365234374	-0.006516660213470459	1.04447998046875	0.007118889808654785	-0.006973569869995117	1.0706500244140624	-0.0164685001373291	0.001529459953308105	1.088739990234375	0.04586090087890625	-0.12172799682617187	1.034050048828125	0.03656510162353516	-0.10279100036621094	1.04306005859375	0.025694799423217774	-0.08765989685058594	1.0529599609375	0.006781779766082764	-0.05545709991455078	1.067199951171875	0.013664299964904786	-0.014556599617004394	1.02472998046875	0.010505000114440917	-0.03564749908447266	1.0272900390625	0.005702720165252685	-0.06323839950561523	1.0268599853515625	-0.018766199111938477	-0.05960409927368164	1.06218994140625	0.004511149883270263	-0.008674850463867187	1.02722998046875	-0.003334870100021362	-0.02524180030822754	1.019739990234375	-0.018842199325561523	-0.050051799774169924	1.018469970703125	-0.037249298095703126	-0.048088199615478514	1.0530899658203126	-0.06564240264892578	-0.06922119903564453	0.9930709838867188	-0.06272969818115234	-0.056406299591064454	1.0094000244140624	-0.05975360107421875	-0.04650600051879883	1.0255999755859375	-0.04966510009765625	-0.028269300460815428	1.04818994140625	-0.045309200286865234	-0.003777770042419433	1.1158900146484374
13	0.43333333333333335	0.019342899322509766	-0.011176600456237792	1.0201900024414063	0.016354700088500977	-0.0072031598091125484	1.0443399658203125	0.007109620094299316	-0.0076708998680114744	1.07022998046875	-0.016638299942016602	0.000776831984519958	1.08875	0.0454832992553711	-0.12218000030517578	1.0330999755859376	0.036239498138427736	-0.10333300018310547	1.0423199462890624	0.025364500045776367	-0.0882488021850586	1.0524000244140626	0.0064878201484680174	-0.05599160003662109	1.0668800048828124	0.013431599617004394	-0.015215999603271484	1.02477001953125	0.010288399696350098	-0.036319698333740234	1.026739990234375	0.00548468017578125	-0.0638995018005371	1.02652001953125	-0.01901409912109375	-0.060259601593017575	1.0616400146484375	0.004468299865722656	-0.009258749961853028	1.027030029296875	-0.0034535899162292483	-0.02578969955444336	1.019510009765625	-0.018999399185180663	-0.050496799468994144	1.0181400146484374	-0.03753300094604492	-0.04880239868164062	1.05297998046875	-0.06587249755859376	-0.0697677993774414	0.9929450073242188	-0.0629723014831543	-0.05698590087890625	1.0093599853515625	-0.05995529937744141	-0.04714830017089844	1.0253599853515625	-0.04980619812011719	-0.028892900466918944	1.04806005859375	-0.04523049926757813	-0.004460269927978515	1.1155699462890625
14	0.4666666666666667	0.019278499603271486	-0.01182390022277832	1.0200900268554687	0.01623859977722168	-0.007901549816131592	1.0441800537109376	0.007032310009002685	-0.008603059768676757	1.0700999755859375	-0.01650149917602539	3.3704500645399006e-05	1.0884599609375	0.04534349822998047	-0.12261799621582031	1.032219970703125	0.03605020141601562	-0.1038489990234375	1.0416300048828124	0.025187299728393554	-0.08888269805908203	1.0518399658203126	0.006363289833068848	-0.05682059860229492	1.0665400390625	0.013375	-0.01598680019378662	1.024219970703125	0.010102499961853027	-0.036947101593017576	1.0263699951171874	0.005240009784698486	-0.06455619812011719	1.0261600341796875	-0.01959760093688965	-0.060894001007080076	1.0618699951171875	0.004362720012664795	-0.009999870300292969	1.0266400146484376	-0.003578639984130859	-0.026485300064086913	1.01925	-0.019233299255371095	-0.051090301513671874	1.0180399780273437	-0.03760110092163086	-0.04926750183105469	1.05252001953125	-0.06574700164794922	-0.07049040222167968	0.9927319946289063	-0.06299969863891601	-0.05774789810180664	1.009260009765625	-0.06001530075073242	-0.04781650161743164	1.025260009765625	-0.049922298431396485	-0.029542699813842773	1.0476199951171874	-0.0454203987121582	-0.0053657999038696285	1.115800048828125
15	0.5	0.01923040008544922	-0.012402600288391113	1.0198300170898438	0.016218900680541992	-0.008642430305480958	1.0438199462890625	0.007097970008850098	-0.009182390213012695	1.0698699951171875	-0.01639970016479492	-0.0008365229964256281	1.088030029296875	0.044965499877929686	-0.12289399719238281	1.0308399658203125	0.035722000122070316	-0.10430899810791015	1.0405	0.024929100036621094	-0.08944100189208984	1.05097998046875	0.006210519790649414	-0.057574100494384765	1.06602001953125	0.013148300170898438	-0.0164773006439209	1.02425	0.009964819908142089	-0.03763909912109375	1.02606005859375	0.004947939872741699	-0.06509819793701171	1.0255400390625	-0.019763599395751952	-0.06158029937744141	1.061469970703125	0.004322710037231445	-0.010591099739074707	1.0263399658203125	-0.0036627299785614007	-0.027042299270629882	1.0187999877929688	-0.019340999603271486	-0.05163299942016602	1.01747998046875	-0.037717601776123044	-0.05001139831542969	1.05218994140625	-0.06596050262451172	-0.0707886962890625	0.9922760009765625	-0.06318569946289063	-0.05805680084228516	1.0088400268554687	-0.06021760177612305	-0.04827140045166016	1.0249200439453126	-0.050078201293945315	-0.03003000068664551	1.04756005859375	-0.045252498626708985	-0.00597776985168457	1.1158900146484374
16	0.5333333333333333	0.018997200012207033	-0.013275899887084962	1.0193200073242188	0.016093799591064453	-0.009439749717712402	1.043510009765625	0.006863870143890381	-0.009934709548950196	1.06931005859375	-0.016397300720214843	-0.0016380000114440908	1.087760009765625	0.044597400665283206	-0.12299900054931641	1.0291199951171874	0.03530319976806641	-0.10464199829101563	1.0391600341796876	0.024578100204467775	-0.09000839996337891	1.050050048828125	0.005937920093536377	-0.058266101837158205	1.0655699462890624	0.012982099533081055	-0.01741780090332031	1.0237899780273438	0.009775270462036132	-0.03839559936523437	1.025739990234375	0.004677840232849121	-0.06573000335693359	1.0250899658203125	-0.019747800827026367	-0.062310699462890626	1.0608599853515626	0.004156340122222901	-0.011282400131225586	1.025969970703125	-0.003899490118026733	-0.027628999710083008	1.018489990234375	-0.01950950050354004	-0.052379398345947265	1.0170499877929688	-0.03812459945678711	-0.050561901092529296	1.051800048828125	-0.06640440368652344	-0.07134220123291016	0.991927978515625	-0.06359560012817383	-0.05864459991455078	1.00852001953125	-0.060559200286865233	-0.048895599365234375	1.0246400146484376	-0.05027259826660156	-0.03072540092468262	1.047260009765625	-0.045298099517822266	-0.006725719928741455	1.1156300048828125
